<?xml version="1.0" encoding="UTF-8" standalone="no"?>
<svg
   viewBox="0 0 24 24"
   version="1.1"
   id="svg1"
   sodipodi:docname="account-group.svg"
   inkscape:version="1.3.2 (1:1.3.2+202311252150+091e20ef0f)"
   xmlns:inkscape="http://www.inkscape.org/namespaces/inkscape"
   xmlns:sodipodi="http://sodipodi.sourceforge.net/DTD/sodipodi-0.dtd"
   xmlns="http://www.w3.org/2000/svg"
   xmlns:svg="http://www.w3.org/2000/svg">
  <defs
     id="defs1" />
  <sodipodi:namedview
     id="namedview1"
     pagecolor="#ffffff"
     bordercolor="#000000"
     borderopacity="0.25"
     inkscape:showpageshadow="2"
     inkscape:pageopacity="0.0"
     inkscape:pagecheckerboard="0"
     inkscape:deskcolor="#d1d1d1"
     inkscape:zoom="30.666667"
     inkscape:cx="12"
     inkscape:cy="12"
     inkscape:window-width="1614"
     inkscape:window-height="981"
     inkscape:window-x="0"
     inkscape:window-y="0"
     inkscape:window-maximized="1"
     inkscape:current-layer="svg1" />
  <path
     d="M12,5.5A3.5,3.5 0 0,1 15.5,9A3.5,3.5 0 0,1 12,12.5A3.5,3.5 0 0,1 8.5,9A3.5,3.5 0 0,1 12,5.5M5,8C5.56,8 6.08,8.15 6.53,8.42C6.38,9.85 6.8,11.27 7.66,12.38C7.16,13.34 6.16,14 5,14A3,3 0 0,1 2,11A3,3 0 0,1 5,8M19,8A3,3 0 0,1 22,11A3,3 0 0,1 19,14C17.84,14 16.84,13.34 16.34,12.38C17.2,11.27 17.62,9.85 17.47,8.42C17.92,8.15 18.44,8 19,8M5.5,18.25C5.5,16.18 8.41,14.5 12,14.5C15.59,14.5 18.5,16.18 18.5,18.25V20H5.5V18.25M0,20V18.5C0,17.11 1.89,15.94 4.45,15.6C3.86,16.28 3.5,17.22 3.5,18.25V20H0M24,20H20.5V18.25C20.5,17.22 20.14,16.28 19.55,15.6C22.11,15.94 24,17.11 24,18.5V20Z"
     id="path1" />
  <path
     style="fill:#f9f9f9;stroke-width:0.0326087"
     d="m 0.01630435,19.175518 c 0,-0.830565 0.02114281,-1.034681 0.13458846,-1.299339 0.36302056,-0.846892 1.54335509,-1.621519 3.07304679,-2.01677 0.3194197,-0.08253 1.1360801,-0.243954 1.1522762,-0.227759 0.00437,0.0044 -0.066416,0.109829 -0.1573099,0.234346 -0.1963089,0.268929 -0.4169338,0.712865 -0.5338598,1.074221 -0.1626036,0.502521 -0.1841302,0.706236 -0.2024397,1.915761 L 3.4654533,19.98913 H 1.7408787 0.01630435 Z"
     id="path2" />
  <path
     style="fill:#f9f9f9;stroke-width:0.0326087"
     d="m 5.5271739,18.99285 c 0,-1.151132 0.020407,-1.296994 0.2461121,-1.759154 1.1854171,-2.42729 6.166355,-3.486194 9.814247,-2.086424 1.298275,0.498175 2.241746,1.250655 2.656873,2.119032 0.207165,0.433355 0.22842,0.594014 0.22842,1.726546 v 0.99628 H 12 5.5271739 Z"
     id="path3" />
  <path
     style="fill:#f9f9f9;stroke-width:0.0326087"
     d="M 11.544135,12.452782 C 10.777038,12.341074 10.097337,12.003014 9.5536865,11.462798 7.8591954,9.7790142 8.3237974,6.9431674 10.467391,5.8857075 11.454414,5.3987977 12.515027,5.3936056 13.504631,5.8708389 14.717246,6.4556189 15.472826,7.6568877 15.472826,9 c 0,1.725748 -1.2553,3.181696 -2.967391,3.441701 -0.33857,0.05142 -0.658952,0.05511 -0.9613,0.01108 z"
     id="path4" />
  <path
     style="fill:#f9f9f9;stroke-width:0.0326087"
     d="M 4.5078239,13.939808 C 4.0396993,13.850951 3.5813253,13.659191 3.2584796,13.417148 2.0921958,12.542762 1.6980415,11.04067 2.2985989,9.7591137 3.0190514,8.2217082 4.8038219,7.5904275 6.3246248,8.3350918 L 6.5128291,8.4272468 6.4912001,8.73808 c -0.042782,0.6148268 0.096354,1.520776 0.330692,2.153224 0.1538198,0.41514 0.4344339,0.959809 0.6474786,1.256749 l 0.174105,0.242666 -0.1687481,0.25301 C 7.058505,13.267787 6.4392633,13.703422 5.697826,13.893775 5.3587409,13.98083 4.8314061,14.001229 4.5078239,13.939808 Z"
     id="path5" />
  <path
     style="fill:#f9f9f9;stroke-width:0.0326087"
     d="m 18.570652,13.953094 c -0.857685,-0.131318 -1.631429,-0.647295 -2.112654,-1.408842 l -0.09911,-0.156835 0.17292,-0.241015 c 0.211972,-0.295444 0.492766,-0.840744 0.646295,-1.255098 0.234539,-0.632992 0.372303,-1.5320565 0.32965,-2.1513438 l -0.02152,-0.3124849 0.207969,-0.1011805 c 0.431003,-0.2096902 0.841118,-0.3048016 1.311381,-0.3041273 1.556182,0.00223 2.8259,1.193004 2.972427,2.7876155 0.04313,0.469367 -0.09769,1.112631 -0.344971,1.575783 -0.50872,0.952836 -1.445465,1.541529 -2.524346,1.586414 -0.179348,0.0075 -0.421468,-10e-4 -0.538044,-0.01889 z"
     id="path6" />
  <path
     style="fill:#f9f9f9;stroke-width:0.0326087"
     d="m 20.517646,18.855978 c -0.01437,-0.963765 -0.02665,-1.179459 -0.08212,-1.442935 -0.122947,-0.583987 -0.359322,-1.142768 -0.654433,-1.547047 -0.09089,-0.124517 -0.161683,-0.229972 -0.15731,-0.234346 0.0162,-0.01619 0.832857,0.145225 1.152276,0.227759 1.476298,0.381455 2.628435,1.115999 3.025073,1.928634 0.162923,0.333798 0.182563,0.483058 0.182563,1.387475 V 19.98913 H 22.25912 20.534546 Z"
     id="path7" />
</svg>
