<?xml version="1.0" encoding="UTF-8" standalone="no"?>
<svg
   viewBox="0 0 24 24"
   version="1.1"
   id="svg1"
   sodipodi:docname="card-account-details-outline.svg"
   inkscape:version="1.3.2 (1:1.3.2+202311252150+091e20ef0f)"
   xmlns:inkscape="http://www.inkscape.org/namespaces/inkscape"
   xmlns:sodipodi="http://sodipodi.sourceforge.net/DTD/sodipodi-0.dtd"
   xmlns="http://www.w3.org/2000/svg"
   xmlns:svg="http://www.w3.org/2000/svg">
  <defs
     id="defs1" />
  <sodipodi:namedview
     id="namedview1"
     pagecolor="#ffffff"
     bordercolor="#000000"
     borderopacity="0.25"
     inkscape:showpageshadow="2"
     inkscape:pageopacity="0.0"
     inkscape:pagecheckerboard="0"
     inkscape:deskcolor="#d1d1d1"
     inkscape:zoom="30.666667"
     inkscape:cx="12"
     inkscape:cy="12"
     inkscape:window-width="1614"
     inkscape:window-height="981"
     inkscape:window-x="0"
     inkscape:window-y="0"
     inkscape:window-maximized="1"
     inkscape:current-layer="svg1" />
  <path
     d="M 21.633407,3.1331097 H 1.6334069 c -1.08999997,0.04 -1.95999997,0.91 -1.99999997,2 V 19.13311 c 0.04,1.09 0.91,1.96 1.99999997,2 H 21.633407 c 1.09,-0.04 1.96,-0.91 2,-2 V 5.1331097 c -0.04,-1.09 -0.91,-1.96 -2,-2 m 0,16.0000003 H 1.6334069 V 5.1331097 H 21.633407 V 19.13311 m -8,-2 v -1.25 c 0,-1.66 -3.34,-2.5 -5.0000001,-2.5 -1.66,0 -5,0.84 -5,2.5 v 1.25 H 13.633407 M 8.6334069,7.1331097 a 2.5,2.5 0 0 0 -2.5,2.5 2.5,2.5 0 0 0 2.5,2.5000003 2.5,2.5 0 0 0 2.5000001,-2.5000003 2.5,2.5 0 0 0 -2.5000001,-2.5 m 5.0000001,0 v 1 h 6 v -1 h -6 m 0,2 V 10.13311 h 6 V 9.1331097 h -6 m 0,2.0000003 v 1 h 4 v -1 h -4"
     id="path1"
     style="fill:#f9f9f9" />
</svg>
