<?xml version="1.0" encoding="UTF-8" standalone="no"?>
<svg
   viewBox="0 0 24 24"
   version="1.1"
   id="svg1"
   sodipodi:docname="cog.svg"
   inkscape:version="1.3.2 (1:1.3.2+202311252150+091e20ef0f)"
   xmlns:inkscape="http://www.inkscape.org/namespaces/inkscape"
   xmlns:sodipodi="http://sodipodi.sourceforge.net/DTD/sodipodi-0.dtd"
   xmlns="http://www.w3.org/2000/svg"
   xmlns:svg="http://www.w3.org/2000/svg">
  <defs
     id="defs1" />
  <sodipodi:namedview
     id="namedview1"
     pagecolor="#ffffff"
     bordercolor="#000000"
     borderopacity="0.25"
     inkscape:showpageshadow="2"
     inkscape:pageopacity="0.0"
     inkscape:pagecheckerboard="0"
     inkscape:deskcolor="#d1d1d1"
     inkscape:zoom="30.666667"
     inkscape:cx="12"
     inkscape:cy="12"
     inkscape:window-width="1614"
     inkscape:window-height="981"
     inkscape:window-x="0"
     inkscape:window-y="0"
     inkscape:window-maximized="1"
     inkscape:current-layer="svg1" />
  <path
     d="M12,15.5A3.5,3.5 0 0,1 8.5,12A3.5,3.5 0 0,1 12,8.5A3.5,3.5 0 0,1 15.5,12A3.5,3.5 0 0,1 12,15.5M19.43,12.97C19.47,12.65 19.5,12.33 19.5,12C19.5,11.67 19.47,11.34 19.43,11L21.54,9.37C21.73,9.22 21.78,8.95 21.66,8.73L19.66,5.27C19.54,5.05 19.27,4.96 19.05,5.05L16.56,6.05C16.04,5.66 15.5,5.32 14.87,5.07L14.5,2.42C14.46,2.18 14.25,2 14,2H10C9.75,2 9.54,2.18 9.5,2.42L9.13,5.07C8.5,5.32 7.96,5.66 7.44,6.05L4.95,5.05C4.73,4.96 4.46,5.05 4.34,5.27L2.34,8.73C2.21,8.95 2.27,9.22 2.46,9.37L4.57,11C4.53,11.34 4.5,11.67 4.5,12C4.5,12.33 4.53,12.65 4.57,12.97L2.46,14.63C2.27,14.78 2.21,15.05 2.34,15.27L4.34,18.73C4.46,18.95 4.73,19.03 4.95,18.95L7.44,17.94C7.96,18.34 8.5,18.68 9.13,18.93L9.5,21.58C9.54,21.82 9.75,22 10,22H14C14.25,22 14.46,21.82 14.5,21.58L14.87,18.93C15.5,18.67 16.04,18.34 16.56,17.94L19.05,18.95C19.27,19.03 19.54,18.95 19.66,18.73L21.66,15.27C21.78,15.05 21.73,14.78 21.54,14.63L19.43,12.97Z"
     id="path1" />
  <path
     style="fill:#f9f9f9;stroke-width:0.0326087"
     d="M 9.7578841,21.905732 C 9.5535554,21.787302 9.5287555,21.693222 9.342913,20.331522 9.2499,19.65 9.1637782,19.050953 9.1515313,19.000306 9.1332499,18.924703 9.0885114,18.890368 8.9015886,18.808487 8.5777767,18.66664 8.1025999,18.390538 7.7608696,18.14567 7.5994565,18.030009 7.4519243,17.935244 7.4330201,17.93508 c -0.018904,-1.64e-4 -0.5765129,0.220134 -1.2391304,0.48955 -0.6626175,0.269417 -1.2524495,0.503017 -1.3107375,0.519111 -0.1392008,0.03844 -0.3121574,-0.01068 -0.4309189,-0.122384 -0.073152,-0.0688 -1.86749,-3.130937 -2.0997431,-3.583325 -0.071096,-0.138482 -0.067646,-0.32869 0.00822,-0.4531 0.033853,-0.05551 0.5471698,-0.481059 1.1407043,-0.945652 L 4.5805656,12.994565 4.5565871,12.717391 C 4.5260618,12.36454 4.5257593,11.645805 4.5559764,11.266304 L 4.5793442,10.972826 3.5005791,10.144051 C 2.9038165,9.6855796 2.3944119,9.2703385 2.3604855,9.2147028 2.2848245,9.0906271 2.2814636,8.9003149 2.3524902,8.7619676 2.6028925,8.2742283 4.382317,5.2439117 4.4646552,5.1650022 4.6767571,4.9617324 4.6667264,4.9594494 6.1319945,5.5445012 L 7.4504315,6.0709265 7.6708679,5.9106049 C 8.0025848,5.6693495 8.5419936,5.350816 8.8529811,5.2125391 9.0847643,5.1094796 9.133453,5.0746114 9.1518368,4.9985152 9.1639158,4.9485166 9.2499,4.35 9.342913,3.6684783 9.5313698,2.2876244 9.5565528,2.1939637 9.7684422,2.0858659 9.8895874,2.0240623 9.9704305,2.0217391 12,2.0217391 c 2.029569,0 2.110413,0.00232 2.231558,0.064127 0.2113,0.1077975 0.237112,0.2031866 0.423836,1.566308 0.218755,1.5969588 0.180295,1.4284853 0.340431,1.4912705 0.344687,0.1351433 0.988411,0.5067099 1.383612,0.7986403 l 0.172915,0.1277305 1.317046,-0.5258697 c 1.463739,-0.5844416 1.453946,-0.5822138 1.665846,-0.3789433 0.08249,0.079128 1.870534,3.1236531 2.112494,3.5969654 0.07068,0.1382573 0.06739,0.3287358 -0.0078,0.4520394 -0.0335,0.054932 -0.546323,0.4731388 -1.139612,0.9293478 l -1.078708,0.829471 0.02289,0.293478 c 0.02968,0.380616 0.02927,1.099246 -8.24e-4,1.451087 l -0.02371,0.277174 1.079191,0.845217 c 0.593555,0.464869 1.106752,0.890413 1.140437,0.945652 0.0755,0.123814 0.07892,0.314133 0.0081,0.452598 -0.174848,0.34203 -2.023427,3.510737 -2.089772,3.582143 -0.111227,0.119711 -0.304028,0.164627 -0.477165,0.111164 -0.07433,-0.02295 -0.648736,-0.251191 -1.276453,-0.507197 -0.627718,-0.256006 -1.164856,-0.471996 -1.193642,-0.479979 -0.02948,-0.0082 -0.22914,0.105432 -0.457185,0.260142 -0.222666,0.151061 -0.602647,0.373617 -0.844401,0.49457 -0.241755,0.120953 -0.443518,0.223807 -0.448361,0.228566 -0.0048,0.0048 -0.08887,0.586753 -0.186732,1.293322 -0.187269,1.352141 -0.210099,1.470904 -0.304157,1.582259 -0.152128,0.180103 -0.08674,0.175301 -2.376403,0.17449 -2.1107724,-7.49e-4 -2.1131633,-8.25e-4 -2.2355829,-0.07178 z m 3.0322789,-6.481646 c 1.004328,-0.239903 1.812106,-0.856028 2.299043,-1.753575 0.285876,-0.526942 0.413137,-1.035288 0.415091,-1.658087 0.003,-0.963875 -0.343114,-1.815324 -1.01303,-2.4919061 C 14.045999,9.0708205 13.495912,8.7601014 12.833927,8.5843643 12.561572,8.5120621 12.455168,8.5014874 12,8.5014874 c -0.455168,0 -0.561572,0.010575 -0.833927,0.082877 C 10.147863,8.8546689 9.3485674,9.4760759 8.8986867,10.347128 8.6147902,10.896804 8.4945652,11.388529 8.4945652,12 c 0,0.954243 0.3484989,1.807188 1.0123063,2.477603 0.5348645,0.540188 1.2921385,0.916113 2.0366065,1.011011 0.32687,0.04167 0.933579,0.01026 1.246685,-0.06453 z"
     id="path2" />
</svg>
