<?xml version="1.0" encoding="UTF-8" standalone="no"?>
<svg
   viewBox="0 0 24 24"
   version="1.1"
   id="svg1"
   sodipodi:docname="help-box.svg"
   inkscape:version="1.3.2 (1:1.3.2+202311252150+091e20ef0f)"
   xmlns:inkscape="http://www.inkscape.org/namespaces/inkscape"
   xmlns:sodipodi="http://sodipodi.sourceforge.net/DTD/sodipodi-0.dtd"
   xmlns="http://www.w3.org/2000/svg"
   xmlns:svg="http://www.w3.org/2000/svg">
  <defs
     id="defs1" />
  <sodipodi:namedview
     id="namedview1"
     pagecolor="#ffffff"
     bordercolor="#000000"
     borderopacity="0.25"
     inkscape:showpageshadow="2"
     inkscape:pageopacity="0.0"
     inkscape:pagecheckerboard="0"
     inkscape:deskcolor="#d1d1d1"
     inkscape:zoom="30.666667"
     inkscape:cx="12"
     inkscape:cy="12"
     inkscape:window-width="1614"
     inkscape:window-height="981"
     inkscape:window-x="0"
     inkscape:window-y="0"
     inkscape:window-maximized="1"
     inkscape:current-layer="svg1" />
  <path
     d="M11,18H13V16H11V18M12,6A4,4 0 0,0 8,10H10A2,2 0 0,1 12,8A2,2 0 0,1 14,10C14,12 11,11.75 11,15H13C13,12.75 16,12.5 16,10A4,4 0 0,0 12,6M5,3H19A2,2 0 0,1 21,5V19A2,2 0 0,1 19,21H5A2,2 0 0,1 3,19V5A2,2 0 0,1 5,3Z"
     id="path1" />
  <path
     style="fill:#f9f9f9;stroke-width:0.0326087"
     d="M 4.7771739,20.966419 C 4.3220345,20.911196 3.9462975,20.723888 3.6023558,20.380759 3.3203404,20.099411 3.142188,19.779042 3.0649053,19.414268 2.99351,19.077283 2.99351,4.9227167 3.0649053,4.5857317 3.2142289,3.8809265 3.7911402,3.2808873 4.5163043,3.0761473 4.7190377,3.0189084 5.0446858,3.0163043 12,3.0163043 c 6.955314,0 7.280962,0.0026 7.483696,0.059843 0.726846,0.205215 1.301729,0.8031441 1.451399,1.5095844 0.07139,0.336985 0.07139,14.4915513 0,14.8285363 -0.149478,0.705532 -0.701766,1.28102 -1.451399,1.512368 -0.166162,0.05128 -0.705586,0.05572 -7.336957,0.06042 -3.9366847,0.0028 -7.252989,-0.0065 -7.3695651,-0.02064 z M 13.027174,16.98913 V 15.978261 H 12 10.972826 V 16.98913 18 H 12 13.027174 Z m 0.0095,-2.225543 c 0.05246,-0.654931 0.38019,-1.170926 1.219939,-1.920753 1.183284,-1.056575 1.485973,-1.447421 1.675505,-2.163486 0.0979,-0.36987 0.09848,-1.0142822 0.0013,-1.4750112 -0.328846,-1.5595721 -1.425125,-2.7010405 -2.987825,-3.1109846 -0.434621,-0.1140146 -1.456683,-0.1140146 -1.891304,0 C 9.851702,6.4088433 8.9144462,7.1631 8.3947112,8.2336957 8.1606121,8.7159137 8.0466046,9.1480637 7.9882363,9.7744565 L 7.9662072,10.01087 H 8.9966905 10.027174 V 9.8820398 c 0,-0.4130436 0.22406,-0.9107821 0.564955,-1.2550203 0.516153,-0.5212148 1.204354,-0.7172123 1.896637,-0.5401562 0.692056,0.176998 1.255958,0.7468839 1.434657,1.4498791 0.06433,0.2530634 0.0631,0.6765446 -0.0026,0.9002736 -0.134541,0.458049 -0.39496,0.770121 -1.105586,1.324875 -0.607883,0.474549 -0.808204,0.650812 -1.031536,0.907655 -0.482237,0.554598 -0.730081,1.199029 -0.792812,2.061432 L 10.9713,15 h 1.02323 1.02323 z"
     id="path2" />
</svg>
