<?xml version="1.0" encoding="UTF-8" standalone="no"?>
<svg
   viewBox="0 0 24 24"
   version="1.1"
   id="svg1"
   sodipodi:docname="message-reply.svg"
   inkscape:version="1.3.2 (1:1.3.2+202311252150+091e20ef0f)"
   xmlns:inkscape="http://www.inkscape.org/namespaces/inkscape"
   xmlns:sodipodi="http://sodipodi.sourceforge.net/DTD/sodipodi-0.dtd"
   xmlns="http://www.w3.org/2000/svg"
   xmlns:svg="http://www.w3.org/2000/svg">
  <defs
     id="defs1" />
  <sodipodi:namedview
     id="namedview1"
     pagecolor="#ffffff"
     bordercolor="#000000"
     borderopacity="0.25"
     inkscape:showpageshadow="2"
     inkscape:pageopacity="0.0"
     inkscape:pagecheckerboard="0"
     inkscape:deskcolor="#d1d1d1"
     inkscape:zoom="30.666667"
     inkscape:cx="12"
     inkscape:cy="12"
     inkscape:window-width="1614"
     inkscape:window-height="981"
     inkscape:window-x="0"
     inkscape:window-y="0"
     inkscape:window-maximized="1"
     inkscape:current-layer="svg1" />
  <path
     d="M22,4C22,2.89 21.1,2 20,2H4A2,2 0 0,0 2,4V16A2,2 0 0,0 4,18H18L22,22V4Z"
     id="path1" />
  <path
     style="fill:#f9f9f9;stroke-width:0.0326087"
     d="m 20.006238,19.973641 -1.972023,-1.972237 -7.174716,-0.0089 -7.1747164,-0.0089 -0.2678643,-0.09073 C 2.6989964,17.649805 2.176095,17.052528 2.052104,16.334027 2.0109873,16.095765 2.005606,15.188365 2.0137257,9.8626927 2.0224526,4.1387813 2.0273823,3.6548798 2.0786536,3.489377 2.2541509,2.9228744 2.6222373,2.4830794 3.1304348,2.2326932 3.5953164,2.0036485 2.8651378,2.0202136 12.083529,2.0295801 l 8.329514,0.00846 0.20163,0.075629 c 0.622472,0.2334815 1.080963,0.705841 1.287599,1.3265452 l 0.07599,0.2282609 0.0086,7.7445648 c 0.0047,4.259511 0.0047,8.371926 0,9.1387 l -0.0086,1.394134 z"
     id="path2" />
  <path
     style="fill:#f9f9f9;stroke-width:0.0326087"
     d="M 19.997249,19.9321 18.048845,17.983696 10.85051,17.972347 3.6521739,17.960999 3.40621,17.866603 C 2.6999635,17.595561 2.2321285,17.068167 2.0859292,16.378241 2.0462673,16.191073 2.0394028,15.247551 2.0406722,10.157609 2.0414952,6.8576087 2.0531185,4.0006653 2.0665018,3.8088455 2.0889509,3.4870857 2.101808,3.4378527 2.232557,3.1729759 2.4217902,2.7896195 2.7535486,2.4530672 3.1366797,2.2557885 3.3698646,2.1357189 3.4444214,2.1142967 3.7236362,2.0871393 3.9167382,2.0683576 7.289145,2.055697 12.234264,2.0551891 l 8.190785,-8.413e-4 0.205954,0.087114 c 0.60427,0.2555932 1.005113,0.663675 1.233419,1.2556933 l 0.09765,0.2532133 -0.0082,9.1150676 -0.0082,9.115068 z"
     id="path3" />
</svg>
