<?xml version="1.0" encoding="UTF-8" standalone="no"?>
<svg
   viewBox="0 0 24 24"
   version="1.1"
   id="svg1"
   sodipodi:docname="note-multiple.svg"
   inkscape:version="1.3.2 (1:1.3.2+202311252150+091e20ef0f)"
   xmlns:inkscape="http://www.inkscape.org/namespaces/inkscape"
   xmlns:sodipodi="http://sodipodi.sourceforge.net/DTD/sodipodi-0.dtd"
   xmlns="http://www.w3.org/2000/svg"
   xmlns:svg="http://www.w3.org/2000/svg">
  <defs
     id="defs1" />
  <sodipodi:namedview
     id="namedview1"
     pagecolor="#ffffff"
     bordercolor="#000000"
     borderopacity="0.25"
     inkscape:showpageshadow="2"
     inkscape:pageopacity="0.0"
     inkscape:pagecheckerboard="0"
     inkscape:deskcolor="#d1d1d1"
     showgrid="false"
     inkscape:zoom="30.666667"
     inkscape:cx="12"
     inkscape:cy="12"
     inkscape:window-width="1614"
     inkscape:window-height="981"
     inkscape:window-x="0"
     inkscape:window-y="0"
     inkscape:window-maximized="1"
     inkscape:current-layer="svg1" />
  <path
     d="M16,9H21.5L16,3.5V9M7,2H17L23,8V18A2,2 0 0,1 21,20H7C5.89,20 5,19.1 5,18V4A2,2 0 0,1 7,2M3,6V22H21V24H3A2,2 0 0,1 1,22V6H3Z"
     id="path1" />
  <path
     style="fill:#f9f9f9;stroke-width:0.0326087"
     d="M 6.5912236,19.939096 C 6.1808897,19.849635 5.7571618,19.591698 5.4812544,19.263421 5.3143141,19.064794 5.1096332,18.646429 5.0577831,18.397852 5.032083,18.274641 5.0218775,16.15037 5.0222211,10.995678 5.0227549,2.9896723 5.006801,3.5765334 5.2365729,3.110803 5.4543733,2.6693379 5.9099622,2.2736734 6.3872838,2.1114471 l 0.2159771,-0.073404 5.2005291,-0.00864 5.200529,-0.00864 2.992817,2.9923394 2.992817,2.9923394 -0.0086,5.1684781 -0.0086,5.168478 -0.08894,0.26087 c -0.2106,0.617686 -0.681518,1.081375 -1.313231,1.293071 l -0.228261,0.07649 -7.271739,0.0058 c -6.0988947,0.0048 -7.3052368,-0.0015 -7.4794284,-0.03951 z M 18.782609,6.2445652 C 17.267199,4.7290761 16.016281,3.4891304 16.00279,3.4891304 c -0.01349,0 -0.02453,1.2399457 -0.02453,2.7554348 V 9 h 2.779819 2.779819 z"
     id="path2" />
  <path
     style="fill:#f9f9f9;stroke-width:0.0326087"
     d="M 2.7717391,23.966065 C 2.1199585,23.888071 1.5305099,23.472228 1.2419439,22.886828 0.99403929,22.383916 1.0120661,23.072745 1.0114358,14.078804 L 1.0108696,6 H 2.0054348 3 v 8.005435 8.005435 h 9 9 V 23.005435 24 L 11.991848,23.9957 C 7.0373641,23.9933 2.8883152,23.98 2.7717391,23.96605 Z"
     id="path3" />
</svg>
