<?xml version="1.0" encoding="UTF-8" standalone="no"?>
<svg
   viewBox="0 0 24 24"
   version="1.1"
   id="svg1"
   sodipodi:docname="view-dashboard.svg"
   inkscape:version="1.3.2 (1:1.3.2+202311252150+091e20ef0f)"
   xmlns:inkscape="http://www.inkscape.org/namespaces/inkscape"
   xmlns:sodipodi="http://sodipodi.sourceforge.net/DTD/sodipodi-0.dtd"
   xmlns="http://www.w3.org/2000/svg"
   xmlns:svg="http://www.w3.org/2000/svg">
  <defs
     id="defs1" />
  <sodipodi:namedview
     id="namedview1"
     pagecolor="#ffffff"
     bordercolor="#000000"
     borderopacity="0.25"
     inkscape:showpageshadow="2"
     inkscape:pageopacity="0.0"
     inkscape:pagecheckerboard="0"
     inkscape:deskcolor="#d1d1d1"
     showgrid="false"
     inkscape:export-bgcolor="#00000000"
     inkscape:zoom="30.666667"
     inkscape:cx="12"
     inkscape:cy="12"
     inkscape:window-width="1614"
     inkscape:window-height="981"
     inkscape:window-x="0"
     inkscape:window-y="0"
     inkscape:window-maximized="1"
     inkscape:current-layer="svg1" />
  <path
     d="M13,3V9H21V3M13,21H21V11H13M3,21H11V15H3M3,13H11V3H3V13Z"
     id="path1"
     style="fill:#1a1a1a" />
  <path
     style="fill:#1a1a1a;stroke-width:0.0326087"
     d="M 13.01087,16.01087 V 11.021739 H 17.005435 21 V 16.01087 21 H 17.005435 13.01087 Z"
     id="path2" />
  <path
     style="fill:#1a1a1a;stroke-width:0.0326087"
     d="M 13.01087,16.01087 V 11.021739 H 17.005435 21 V 16.01087 21 H 17.005435 13.01087 Z"
     id="path3" />
  <path
     style="fill:#1a1a1a;stroke-width:0.0326087"
     d="M 13.01087,16.01087 V 11.021739 H 17.005435 21 V 16.01087 21 H 17.005435 13.01087 Z"
     id="path4" />
  <path
     style="fill:#1a1a1a;stroke-width:0.0326087"
     d="M 13.01087,16.01087 V 11.021739 H 17.005435 21 V 16.01087 21 H 17.005435 13.01087 Z"
     id="path5" />
  <path
     style="fill:#1a1a1a;stroke-width:0.0326087"
     d="M 13.01087,16.01087 V 11.021739 H 17.005435 21 V 16.01087 21 H 17.005435 13.01087 Z"
     id="path6" />
  <path
     style="fill:#1a1a1a;stroke-width:0.0326087"
     d="M 3,7.9891304 V 3 H 6.9945652 10.98913 V 7.9891304 12.978261 H 6.9945652 3 Z"
     id="path7" />
  <path
     style="fill:#f9f9f9;stroke-width:0.0326087"
     d="M 3,7.9891304 V 3 H 6.9945652 10.98913 V 7.9891304 12.978261 H 6.9945652 3 Z"
     id="path8" />
  <path
     style="fill:#f9f9f9;stroke-width:0.0326087"
     d="M 3,18 V 15 H 6.9945652 10.98913 v 3 3 H 6.9945652 3 Z"
     id="path9" />
  <path
     style="fill:#f9f9f9;stroke-width:0.0326087"
     d="M 13.01087,16.01087 V 11.021739 H 17.005435 21 V 16.01087 21 H 17.005435 13.01087 Z"
     id="path10" />
  <path
     style="fill:#f9f9f9;stroke-width:0.0326087"
     d="M 13.01087,6 V 3 H 17.005435 21 V 6 9 H 17.005435 13.01087 Z"
     id="path11"
     inkscape:export-filename="path11.png"
     inkscape:export-xdpi="96"
     inkscape:export-ydpi="96" />
</svg>
